<?xml version="1.0" encoding="utf-8"?>
<svg viewBox="84.363 182.877 326.873 65.295" xmlns="http://www.w3.org/2000/svg">
  <path d="M 92.951 235.7 Q 92.793 235.806 92.634 235.911 Q 92.476 236.017 92.318 236.122 Q 91.738 236.439 91.263 236.465 Q 90.789 236.491 90.209 237.019 Q 89.998 236.755 89.892 236.755 Q 89.787 236.755 89.523 236.755 Q 88.837 236.755 88.732 236.386 Q 88.521 236.439 88.073 236.649 Q 87.625 236.86 87.414 236.966 Q 87.888 236.28 88.046 235.911 Q 88.205 235.542 88.231 235.226 Q 88.257 234.909 88.284 234.566 Q 88.31 234.224 88.521 233.591 Q 88.627 233.38 88.679 233.169 Q 88.732 232.958 88.837 232.694 Q 89.101 231.903 89.286 230.901 Q 89.47 229.899 89.892 229.161 Q 89.892 228.265 90.288 227.474 Q 90.683 226.683 90.947 225.839 Q 91.052 225.523 91.237 225.206 Q 91.421 224.89 91.527 224.573 Q 91.738 224.046 91.87 223.545 Q 92.002 223.044 92.16 222.569 Q 92.582 221.04 93.004 219.537 Q 93.425 218.034 93.795 216.505 Q 93.847 216.241 93.926 215.925 Q 94.005 215.608 94.111 215.345 Q 94.375 214.554 94.454 213.736 Q 94.533 212.919 94.955 212.181 Q 94.902 211.812 94.981 211.495 Q 95.06 211.179 95.166 210.81 Q 95.271 210.441 95.377 210.124 Q 95.482 209.808 95.535 209.649 Q 95.798 208.964 95.93 208.41 Q 96.062 207.857 96.484 207.224 Q 96.484 207.224 96.642 206.67 Q 96.8 206.116 97.011 205.431 Q 97.222 204.745 97.38 204.139 Q 97.539 203.532 97.539 203.427 Q 97.644 203.005 97.723 202.636 Q 97.802 202.267 97.908 201.845 Q 98.013 201.581 98.119 201.397 Q 98.224 201.212 98.33 200.948 Q 98.488 200.368 98.646 199.524 Q 98.804 198.681 99.068 198.206 Q 99.226 197.837 99.674 197.6 Q 100.123 197.362 100.439 197.099 Q 101.388 197.204 101.837 196.993 Q 102.285 196.782 102.707 196.466 Q 102.97 196.519 103.208 196.598 Q 103.445 196.677 103.709 196.677 Q 104.711 197.784 105.106 198.944 Q 105.502 200.105 105.871 201.265 Q 106.029 201.845 106.187 202.399 Q 106.345 202.952 106.556 203.48 Q 106.609 203.638 106.714 203.822 Q 106.82 204.007 106.925 204.218 Q 107.189 204.64 107.374 205.114 Q 107.558 205.589 107.716 206.064 Q 108.033 206.433 108.191 206.934 Q 108.349 207.435 108.481 207.936 Q 108.613 208.437 108.771 208.885 Q 108.929 209.333 109.246 209.649 Q 109.351 210.23 109.615 210.783 Q 109.879 211.337 109.984 211.97 Q 110.3 212.392 110.722 213.578 Q 111.144 214.765 111.566 216.136 Q 111.988 217.507 112.357 218.773 Q 112.726 220.038 112.884 220.566 Q 112.99 220.987 113.306 221.647 Q 113.623 222.306 113.886 222.833 Q 114.097 223.413 114.335 224.046 Q 114.572 224.679 114.73 225.259 Q 114.836 225.839 114.967 226.366 Q 115.099 226.894 115.257 227.474 Q 115.363 227.843 115.574 228.133 Q 115.785 228.423 115.89 228.845 Q 116.101 229.267 116.18 229.636 Q 116.259 230.005 116.523 230.427 Q 116.47 231.007 116.576 231.165 Q 116.681 231.323 116.787 231.534 Q 116.998 232.642 117.261 233.301 Q 117.525 233.96 117.525 234.698 Q 117.525 235.331 117.288 235.489 Q 117.05 235.648 116.681 236.017 Q 116.259 236.386 115.969 236.597 Q 115.679 236.808 115.099 236.808 Q 114.466 236.755 114.335 236.992 Q 114.203 237.23 114.15 237.335 Q 113.517 237.282 113.333 237.309 Q 113.148 237.335 112.963 237.335 Q 112.779 237.335 112.594 237.414 Q 112.41 237.493 112.199 237.757 Q 111.83 237.335 111.487 236.992 Q 111.144 236.649 110.88 236.228 Q 110.88 235.331 110.643 234.118 Q 110.406 232.905 110.142 232.22 Q 109.615 230.849 109.167 229.53 Q 108.718 228.212 108.296 226.841 Q 108.138 226.261 107.954 225.786 Q 107.769 225.312 107.558 224.784 Q 107.664 225.206 107.637 225.654 Q 107.611 226.103 107.347 226.524 Q 107.242 226.63 107.031 226.788 Q 106.82 226.946 106.82 227.052 Q 106.187 227.579 105.712 228.054 Q 105.765 229.003 105.449 229.372 Q 105.132 229.741 104.763 230.058 Q 103.867 230.11 103.656 229.952 Q 103.445 229.794 103.076 229.741 Q 102.865 229.689 102.654 229.715 Q 102.443 229.741 102.232 229.741 Q 101.81 229.741 101.441 229.53 Q 101.283 229.425 101.204 229.319 Q 101.125 229.214 101.019 229.108 Q 100.597 228.687 100.044 228.397 Q 99.49 228.107 98.962 227.896 Q 98.541 227.526 98.092 227.131 Q 97.644 226.735 97.17 226.472 Q 96.748 227.474 96.51 228.238 Q 96.273 229.003 95.957 229.741 Q 95.377 231.534 95.007 232.879 Q 94.638 234.224 94.164 235.595 Q 93.953 235.648 93.768 235.753 Q 93.584 235.858 93.32 235.858 Z M 98.119 224.468 Q 98.541 223.73 98.883 223.65 Q 99.226 223.571 99.49 223.255 Q 99.595 223.149 99.727 222.991 Q 99.859 222.833 100.017 222.675 Q 100.175 222.569 100.386 222.464 Q 100.597 222.358 100.755 222.2 Q 101.177 221.831 101.467 221.567 Q 101.757 221.304 102.337 221.304 Q 103.234 221.304 103.814 221.752 Q 104.394 222.2 105.238 222.358 Q 105.343 222.675 105.923 222.807 Q 106.504 222.939 106.82 223.149 Q 106.293 221.831 106.003 220.486 Q 105.712 219.142 105.291 217.823 Q 104.974 216.663 104.552 215.529 Q 104.13 214.396 103.709 213.341 Q 103.339 212.286 103.076 211.284 Q 102.812 210.282 102.39 209.333 Q 101.968 210.282 101.546 211.653 Q 101.125 213.024 100.914 214.079 Q 100.914 214.554 100.861 214.817 Q 100.755 215.187 100.65 215.477 Q 100.545 215.767 100.439 216.083 Q 99.754 218.14 99.2 220.249 Q 98.646 222.358 97.908 224.468 Z" style="fill: rgb(34, 34, 34); white-space: pre;"/>
  <path d="M 142.926 196.941 Q 143.506 196.941 143.769 197.099 Q 144.033 197.626 144.112 198.022 Q 144.191 198.417 144.191 198.944 Q 144.244 199.735 144.218 200.078 Q 144.191 200.421 144.139 200.79 Q 144.086 201.634 144.086 202.399 Q 144.086 203.163 144.086 204.007 Q 144.086 205.853 144.139 207.751 Q 144.191 209.649 144.191 211.495 Q 144.191 212.233 144.165 212.945 Q 144.139 213.657 144.139 214.396 Q 144.139 214.554 144.165 214.738 Q 144.191 214.923 144.191 215.081 Q 144.191 215.556 144.165 216.004 Q 144.139 216.452 144.139 216.874 Q 144.139 217.085 144.139 217.243 Q 144.139 217.401 144.191 217.665 Q 144.086 218.087 144.086 218.245 Q 144.086 219.089 144.139 219.959 Q 144.191 220.829 144.191 221.673 Q 144.191 222.464 144.218 223.202 Q 144.244 223.941 144.244 224.732 Q 144.244 225.153 144.218 225.628 Q 144.191 226.103 144.191 226.577 Q 144.191 227.685 144.244 228.818 Q 144.297 229.952 144.35 231.06 Q 144.35 231.798 144.35 232.51 Q 144.35 233.222 144.455 233.96 Q 144.455 234.804 144.376 235.199 Q 144.297 235.595 144.191 235.964 Q 143.769 236.069 143.638 236.043 Q 143.506 236.017 143.348 236.017 Q 142.609 236.228 142.398 236.412 Q 142.187 236.597 141.924 236.808 Q 141.713 236.808 141.423 236.834 Q 141.133 236.86 140.975 237.019 Q 140.711 236.913 140.553 236.966 Q 140.394 237.019 140.236 237.019 Q 139.498 237.071 139.234 237.203 Q 138.971 237.335 138.496 237.335 Q 138.074 236.649 137.863 236.254 Q 137.652 235.858 137.178 235.911 Q 136.492 234.857 136.202 233.696 Q 135.912 232.536 135.226 231.587 Q 135.174 231.165 135.068 231.06 Q 134.963 230.954 134.857 230.638 Q 134.646 230.216 134.488 229.741 Q 134.33 229.267 134.066 228.845 Q 133.644 227.948 133.223 227.078 Q 132.801 226.208 132.432 225.259 Q 132.273 224.837 132.168 224.389 Q 132.062 223.941 131.904 223.519 Q 131.799 223.308 131.667 223.097 Q 131.535 222.886 131.43 222.728 Q 131.113 222.148 130.823 221.567 Q 130.533 220.987 130.164 220.407 Q 130.059 220.144 129.874 219.906 Q 129.689 219.669 129.478 219.405 Q 129.32 219.036 129.188 218.667 Q 129.057 218.298 128.898 217.929 Q 128.793 217.612 128.582 217.27 Q 128.371 216.927 128.266 216.61 Q 128.16 216.347 128.107 216.083 Q 128.055 215.819 127.791 215.608 Q 127.422 216.241 127.422 216.452 Q 127.369 217.085 127.343 217.481 Q 127.316 217.876 127.316 218.192 Q 127.316 218.562 127.395 218.904 Q 127.475 219.247 127.475 219.564 Q 127.58 220.829 127.633 222.121 Q 127.685 223.413 127.685 224.679 Q 127.633 225.681 127.659 226.208 Q 127.685 226.735 127.738 227.263 Q 127.791 227.79 127.765 228.344 Q 127.738 228.898 127.791 229.425 Q 127.791 230.638 127.817 231.772 Q 127.844 232.905 127.844 234.118 L 127.844 235.384 Q 127.844 235.964 127.685 236.439 Q 126.894 236.439 126.657 236.386 Q 126.42 236.333 126.156 236.228 Q 125.84 236.28 125.655 236.465 Q 125.471 236.649 125.207 236.808 Q 124.627 236.755 124.574 236.834 Q 124.521 236.913 124.363 237.019 Q 124.205 237.071 124.073 237.019 Q 123.941 236.966 123.783 236.966 Q 123.361 236.86 123.098 236.86 Q 122.781 236.966 122.491 237.071 Q 122.201 237.177 121.885 237.23 Q 121.568 236.649 121.516 235.858 Q 121.463 235.067 121.094 234.487 Q 121.199 234.276 121.225 234.224 Q 121.252 234.171 121.252 233.907 Q 121.252 232.694 121.199 231.482 Q 121.146 230.269 121.146 229.056 Q 121.146 228.054 121.015 227.105 Q 120.883 226.155 120.883 225.153 Q 120.883 224.837 120.935 224.521 Q 120.988 224.204 120.988 223.835 Q 120.988 223.677 120.962 223.519 Q 120.935 223.36 120.935 223.255 Q 120.83 222.306 120.804 221.304 Q 120.777 220.302 120.777 219.3 Q 120.725 218.72 120.698 218.087 Q 120.672 217.454 120.672 216.769 Q 120.672 216.505 120.725 216.189 Q 120.777 215.872 120.777 215.556 L 120.777 213.341 Q 120.672 212.708 120.698 212.497 Q 120.725 212.286 120.725 212.075 Q 120.725 211.601 120.645 211.152 Q 120.566 210.704 120.566 210.177 Q 120.566 209.808 120.645 209.465 Q 120.725 209.122 120.725 208.753 Q 120.725 207.962 120.645 207.224 Q 120.566 206.485 120.566 205.694 L 120.566 201.212 Q 120.566 200.843 120.514 200.474 Q 120.461 200.105 120.461 199.683 Q 120.777 198.944 121.041 198.918 Q 121.305 198.892 121.516 198.733 Q 122.096 198.839 122.517 198.628 Q 123.203 198.681 123.361 198.47 Q 123.467 198.575 123.651 198.549 Q 123.836 198.523 123.994 198.575 Q 124.152 198.47 124.258 198.364 Q 124.363 198.259 124.574 198.153 Q 125.154 197.837 125.26 197.758 Q 125.365 197.679 125.523 197.573 Q 125.787 197.573 125.866 197.732 Q 125.945 197.89 126.209 197.89 Q 126.314 198.101 126.473 198.312 Q 126.631 198.523 126.842 198.628 Q 127.264 199.524 127.844 200.157 Q 128.318 201.528 128.925 202.794 Q 129.531 204.06 130.217 205.325 Q 130.217 205.483 130.269 205.721 Q 130.322 205.958 130.375 206.064 Q 130.639 206.644 131.14 207.566 Q 131.641 208.489 132.01 209.069 Q 132.115 209.28 132.273 209.439 Q 132.432 209.597 132.537 209.808 Q 132.695 210.071 132.801 210.388 Q 132.906 210.704 133.064 210.968 Q 133.328 211.601 133.671 212.207 Q 134.014 212.814 134.383 213.446 Q 134.488 213.763 134.62 214.079 Q 134.752 214.396 134.91 214.712 Q 135.332 215.661 135.675 216.162 Q 136.017 216.663 136.176 217.243 Q 136.545 217.665 136.756 218.166 Q 136.967 218.667 137.389 218.983 Q 137.441 218.72 137.494 217.428 Q 137.547 216.136 137.547 214.607 Q 137.547 213.077 137.547 211.706 Q 137.547 210.335 137.547 209.86 Q 137.547 208.437 137.494 207.039 Q 137.441 205.642 137.441 204.271 Q 137.441 203.163 137.468 202.029 Q 137.494 200.896 137.547 199.788 Q 137.6 199.208 137.573 198.707 Q 137.547 198.206 137.6 197.679 Q 137.652 197.415 137.81 197.151 Q 137.969 196.888 138.074 196.624 Q 138.76 196.519 139.129 196.888 Q 139.445 196.73 139.893 196.73 Q 140.342 196.73 140.658 196.677 Q 141.08 196.624 141.133 196.598 Q 141.185 196.571 141.291 196.571 Q 141.502 196.677 141.686 196.73 Q 141.871 196.782 142.135 196.888 Q 142.609 196.73 142.926 196.941 Z" style="fill: rgb(34, 34, 34); white-space: pre;"/>
  <path d="M 167.176 230.48 Q 167.071 230.796 167.071 231.06 Q 167.071 231.376 167.15 231.692 Q 167.229 232.009 167.229 232.325 Q 167.124 233.274 167.071 233.485 Q 166.754 233.749 165.779 234.092 Q 164.803 234.435 163.459 234.777 Q 162.114 235.12 160.558 235.463 Q 159.002 235.806 157.579 236.122 Q 156.155 236.439 154.968 236.676 Q 153.782 236.913 153.202 237.019 Q 152.938 237.071 152.701 237.15 Q 152.463 237.23 152.2 237.335 Q 151.936 237.388 151.672 237.361 Q 151.409 237.335 151.145 237.441 Q 150.987 237.441 150.855 237.282 Q 150.723 237.124 150.618 237.019 Q 150.618 236.702 150.512 236.544 Q 150.407 236.386 150.275 236.28 Q 150.143 236.175 150.038 236.043 Q 149.932 235.911 149.932 235.595 Q 149.827 235.173 149.642 234.936 Q 149.458 234.698 149.458 234.487 Q 149.247 233.802 149.247 233.274 Q 149.247 233.011 149.299 232.853 Q 149.352 232.694 149.458 232.536 Q 149.774 232.431 149.932 232.273 Q 150.09 232.114 150.354 232.009 Q 150.67 231.851 151.251 231.719 Q 151.831 231.587 152.516 231.429 Q 153.202 231.271 153.834 231.112 Q 154.467 230.954 154.889 230.796 Q 155.047 230.743 155.206 230.743 Q 155.364 230.743 155.469 230.638 Q 155.364 229.794 155.337 228.95 Q 155.311 228.107 155.206 227.316 Q 155.206 226.946 155.153 226.577 Q 155.1 226.208 155.1 225.892 L 155.153 224.784 Q 155.153 222.78 154.995 220.776 Q 154.836 218.773 154.836 216.769 L 154.836 214.976 Q 154.836 214.554 154.81 214.185 Q 154.784 213.816 154.784 213.394 Q 154.784 212.392 154.81 211.469 Q 154.836 210.546 154.836 209.544 L 154.836 204.692 Q 153.676 204.429 152.674 204.719 Q 151.672 205.009 150.618 205.114 Q 150.249 204.745 150.196 204.323 Q 149.774 203.743 149.616 203.585 Q 149.458 203.427 149.247 202.689 Q 148.877 201.95 148.64 201.766 Q 148.403 201.581 148.403 201.159 Q 148.403 200.896 148.535 200.79 Q 148.667 200.685 148.772 200.421 Q 149.247 200.21 149.326 200.131 Q 149.405 200.052 149.51 199.999 Q 150.038 199.63 150.723 199.472 Q 151.409 199.314 152.042 199.103 Q 152.569 198.944 153.043 198.733 Q 153.518 198.523 154.098 198.364 Q 154.784 198.153 155.469 197.942 Q 156.155 197.732 156.788 197.573 Q 157.209 197.468 157.605 197.494 Q 158.001 197.521 158.422 197.257 Q 159.108 197.362 159.873 197.231 Q 160.637 197.099 161.534 196.888 Q 162.43 196.677 163.274 196.519 Q 164.118 196.36 164.54 196.255 Q 164.803 196.36 164.909 196.519 Q 165.014 196.677 165.225 196.73 Q 165.278 196.888 165.331 197.125 Q 165.383 197.362 165.542 197.468 Q 165.542 198.048 165.805 198.312 Q 165.752 198.839 165.99 199.498 Q 166.227 200.157 166.227 200.737 Q 165.963 201.528 165.357 201.739 Q 164.751 201.95 164.039 202.108 Q 163.327 202.267 162.641 202.399 Q 161.956 202.53 161.534 202.689 Q 161.534 203.427 161.56 204.218 Q 161.586 205.009 161.586 205.8 Q 161.586 206.538 161.56 207.276 Q 161.534 208.015 161.534 208.753 Q 161.534 209.86 161.507 211.021 Q 161.481 212.181 161.481 213.341 Q 161.481 214.976 161.534 216.61 Q 161.586 218.245 161.692 219.88 Q 161.745 220.144 161.745 220.671 Q 161.745 222.78 161.824 224.811 Q 161.903 226.841 162.114 229.003 Q 162.799 229.056 163.168 228.792 Q 163.432 228.792 163.669 228.687 Q 163.907 228.581 164.118 228.476 Q 164.434 228.423 164.988 228.291 Q 165.542 228.159 165.7 228.159 Q 166.174 228.212 166.28 228.159 Q 166.438 228.476 166.754 228.634 Q 166.86 229.108 166.939 229.557 Q 167.018 230.005 167.176 230.48 Z" style="fill: rgb(34, 34, 34); white-space: pre;"/>
  <path d="M 208.935 236.386 Q 208.671 236.649 208.355 236.702 Q 208.038 236.755 207.722 236.755 Q 206.931 237.124 206.034 237.124 Q 205.454 236.808 205.401 236.913 Q 205.349 237.019 205.191 237.124 Q 204.399 237.493 203.767 237.52 Q 203.134 237.546 202.712 237.81 Q 202.29 237.493 202.264 236.887 Q 202.237 236.28 202.132 235.858 Q 201.868 235.489 201.763 234.936 Q 201.657 234.382 201.605 233.802 Q 201.552 233.222 201.473 232.668 Q 201.394 232.114 201.183 231.692 Q 201.13 231.429 201.156 231.218 Q 201.183 231.007 201.077 230.743 Q 201.13 229.847 201.024 229.319 Q 200.919 228.792 200.814 228.212 Q 200.761 227.896 200.761 227.5 Q 200.761 227.105 200.444 226.894 Q 200.603 226.155 200.497 225.786 Q 200.392 225.417 200.339 225.101 Q 200.286 224.679 200.286 224.178 Q 200.286 223.677 200.181 223.255 Q 199.864 220.724 199.495 218.192 Q 199.126 215.661 198.81 213.13 Q 198.493 213.394 198.361 213.921 Q 198.23 214.448 198.124 214.87 Q 197.808 215.819 197.544 216.821 Q 197.28 217.823 197.017 218.773 Q 196.911 219.194 196.832 219.748 Q 196.753 220.302 196.595 220.724 Q 196.067 222.253 195.672 223.36 Q 195.276 224.468 194.907 225.628 Q 194.802 226.261 194.696 226.841 Q 194.591 227.421 194.485 228.001 Q 194.433 228.317 194.327 228.898 Q 194.222 229.478 194.116 229.741 Q 194.011 230.005 193.932 230.11 Q 193.853 230.216 193.905 230.48 Q 193.378 231.271 193.193 232.22 Q 193.009 233.169 192.534 234.066 Q 192.534 234.698 192.06 235.173 Q 191.796 235.226 191.559 235.278 Q 191.321 235.331 191.058 235.489 Q 190.794 235.384 190.451 235.357 Q 190.108 235.331 189.792 235.331 Q 189.528 235.278 189.317 235.147 Q 189.107 235.015 188.843 234.962 Q 188.579 234.646 188.263 234.408 Q 187.946 234.171 187.63 233.907 Q 187.314 233.116 187.05 232.853 Q 186.892 232.273 186.628 231.772 Q 186.364 231.271 186.259 230.638 Q 186.101 230.058 185.863 229.557 Q 185.626 229.056 185.362 228.476 Q 185.257 228.107 185.125 227.764 Q 184.993 227.421 184.835 227.052 Q 184.782 226.63 184.545 225.997 Q 184.308 225.364 184.202 224.89 Q 184.202 224.837 184.018 224.336 Q 183.833 223.835 183.649 223.255 Q 183.464 222.675 183.279 222.2 Q 183.095 221.726 183.042 221.673 Q 182.937 221.409 182.857 221.172 Q 182.778 220.935 182.673 220.618 Q 182.462 219.933 182.146 219.221 Q 181.829 218.509 181.513 217.876 Q 181.249 217.349 181.144 216.848 Q 181.038 216.347 180.88 215.872 Q 180.774 215.608 180.695 215.398 Q 180.616 215.187 180.511 214.923 Q 180.405 214.607 180.3 214.264 Q 180.194 213.921 180.089 213.552 Q 179.825 213.657 179.852 214 Q 179.878 214.343 179.825 214.607 Q 179.72 215.187 179.72 215.74 Q 179.72 216.294 179.667 216.874 Q 179.562 217.507 179.456 218.087 Q 179.351 218.667 179.298 219.247 Q 179.298 220.671 179.14 222.095 Q 179.034 223.36 178.876 224.652 Q 178.718 225.944 178.665 227.316 Q 178.665 228.317 178.454 229.293 Q 178.243 230.269 178.349 231.323 Q 178.243 231.534 178.243 231.64 Q 178.243 231.745 178.243 231.956 Q 178.243 232.22 178.217 232.536 Q 178.191 232.853 178.191 233.116 Q 178.191 233.591 178.296 233.749 Q 178.138 234.224 178.138 234.777 Q 178.138 235.331 178.138 235.858 Q 178.032 236.069 178.006 236.28 Q 177.98 236.491 177.821 236.702 Q 177.874 237.599 177.294 237.599 Q 177.136 237.599 176.951 237.52 Q 176.767 237.441 176.661 237.282 Q 176.081 237.335 176.002 237.019 Q 175.923 236.702 175.659 236.755 Q 175.026 237.019 174.947 236.913 Q 174.868 236.808 174.605 236.86 Q 174.183 236.439 174.051 236.491 Q 173.919 236.544 173.814 236.544 Q 173.339 236.386 173.286 236.465 Q 173.233 236.544 173.075 236.544 Q 172.812 236.28 172.363 236.28 Q 171.915 236.28 171.599 236.228 Q 171.546 236.017 171.52 235.832 Q 171.493 235.648 171.493 235.384 Q 171.493 235.067 171.52 234.777 Q 171.546 234.487 171.546 234.171 Q 171.546 233.907 171.52 233.617 Q 171.493 233.327 171.493 232.958 Q 171.493 232.589 171.546 232.246 Q 171.599 231.903 171.599 231.482 Q 171.599 231.323 171.546 231.191 Q 171.493 231.06 171.493 230.849 Q 171.81 230.163 171.783 229.768 Q 171.757 229.372 171.81 229.003 Q 171.915 228.107 171.994 227.236 Q 172.073 226.366 172.179 225.47 Q 172.179 223.993 172.258 223.018 Q 172.337 222.042 172.495 221.04 Q 172.601 220.566 172.68 220.144 Q 172.759 219.722 172.864 219.247 Q 172.97 218.456 172.996 217.586 Q 173.023 216.716 173.128 215.872 Q 173.233 214.554 173.392 213.262 Q 173.55 211.97 173.655 210.704 Q 173.761 209.702 173.893 208.727 Q 174.024 207.751 174.024 206.855 Q 174.024 206.38 174.156 205.642 Q 174.288 204.903 174.341 204.376 Q 174.446 203.11 174.525 201.898 Q 174.605 200.685 174.605 199.472 L 174.605 198.892 Q 174.605 198.786 174.71 198.681 Q 174.816 198.575 174.816 198.312 Q 174.816 197.837 175.053 197.652 Q 175.29 197.468 175.448 197.046 Q 175.712 197.046 176.055 197.099 Q 176.398 197.151 176.556 197.415 Q 176.925 197.31 177.294 197.31 Q 177.663 197.31 177.927 197.046 Q 178.243 197.046 178.401 197.204 Q 178.56 197.362 178.823 197.468 Q 179.034 197.362 179.245 197.283 Q 179.456 197.204 179.667 197.099 Q 179.825 197.204 179.904 197.336 Q 179.983 197.468 180.142 197.521 Q 180.933 197.31 181.196 197.468 Q 181.302 197.679 181.328 197.89 Q 181.355 198.101 181.407 198.312 Q 181.935 198.839 182.093 199.498 Q 182.251 200.157 182.673 200.685 Q 182.778 201.001 182.91 201.317 Q 183.042 201.634 183.148 202.056 L 183.306 202.689 Q 183.517 203.216 183.833 203.954 Q 184.097 204.956 184.308 206.011 Q 184.519 207.066 184.993 207.962 Q 185.046 208.278 185.178 208.727 Q 185.31 209.175 185.415 209.491 Q 185.784 210.388 186.18 211.258 Q 186.575 212.128 186.892 213.13 Q 187.208 214.132 187.445 215.187 Q 187.683 216.241 188.052 217.243 Q 188.368 218.192 188.526 218.614 Q 188.685 219.036 188.948 219.458 Q 188.948 219.616 189.027 219.985 Q 189.107 220.355 189.265 220.75 Q 189.423 221.146 189.581 221.488 Q 189.739 221.831 189.898 221.884 Q 190.056 221.778 190.082 221.567 Q 190.108 221.357 190.267 221.198 Q 190.319 220.618 190.451 219.774 Q 190.583 218.931 190.847 218.403 Q 190.847 218.14 190.979 217.428 Q 191.11 216.716 191.321 215.899 Q 191.532 215.081 191.717 214.396 Q 191.901 213.71 192.06 213.552 Q 192.165 212.866 192.244 212.708 Q 192.323 212.55 192.429 212.444 Q 192.482 212.023 192.64 211.653 Q 192.798 211.284 192.851 210.862 Q 192.956 209.966 193.114 209.386 Q 193.273 208.806 193.536 207.962 Q 193.747 207.224 193.932 206.459 Q 194.116 205.694 194.38 204.956 Q 195.013 202.952 195.514 201.397 Q 196.015 199.841 196.753 198.364 Q 196.911 197.89 197.017 197.784 Q 197.122 197.679 197.228 197.573 Q 197.649 197.415 198.098 197.415 Q 198.546 197.415 199.021 197.468 Q 199.548 197.257 199.812 196.993 Q 200.023 197.257 200.444 197.257 Q 200.972 197.257 201.183 196.941 Q 201.394 197.046 201.525 196.993 Q 201.657 196.941 201.921 197.046 Q 202.026 196.941 202.185 196.809 Q 202.343 196.677 202.501 196.677 Q 202.923 197.204 203.16 197.494 Q 203.398 197.784 203.503 198.153 Q 203.661 198.628 203.688 199.182 Q 203.714 199.735 203.978 200.21 Q 203.925 200.896 204.057 202.293 Q 204.189 203.691 204.373 205.246 Q 204.558 206.802 204.769 208.12 Q 204.98 209.439 205.138 209.755 Q 205.085 210.441 205.191 210.915 Q 205.296 211.39 205.296 211.864 Q 205.296 212.023 205.349 212.524 Q 205.401 213.024 205.454 213.578 Q 205.507 214.132 205.586 214.633 Q 205.665 215.134 205.718 215.345 Q 205.718 216.294 206.034 216.821 Q 206.298 218.14 206.482 219.458 Q 206.667 220.776 206.825 222.148 Q 206.931 222.833 206.957 223.466 Q 206.983 224.099 207.089 224.784 Q 207.142 225.048 207.221 225.312 Q 207.3 225.575 207.353 225.839 Q 207.458 226.366 207.511 226.841 Q 207.564 227.316 207.669 227.79 Q 207.722 228.054 207.827 228.344 Q 207.933 228.634 207.827 228.95 Q 207.933 229.319 207.906 229.741 Q 207.88 230.163 208.091 230.48 Q 208.091 231.587 208.249 232.431 Q 208.302 233.064 208.566 233.696 Q 208.671 234.329 208.75 235.015 Q 208.829 235.7 208.935 236.386 Z" style="fill: rgb(34, 34, 34); white-space: pre;"/>
  <path d="M 235.336 230.216 Q 234.809 230.269 234.703 230.163 Q 234.492 230.269 234.308 230.374 Q 234.123 230.48 233.912 230.638 Q 233.174 230.901 232.462 231.323 Q 231.75 231.745 231.012 232.114 Q 230.59 232.325 230.194 232.457 Q 229.799 232.589 229.377 232.8 Q 228.744 233.116 228.111 233.459 Q 227.479 233.802 226.793 234.066 Q 226.424 234.171 226.081 234.276 Q 225.738 234.382 225.369 234.487 Q 224.947 234.646 224.605 234.83 Q 224.262 235.015 223.893 235.173 Q 223.629 235.278 223.339 235.357 Q 223.049 235.437 222.732 235.595 Q 222.469 235.7 222.284 235.858 Q 222.1 236.017 221.836 236.122 Q 221.414 236.28 220.966 236.439 Q 220.518 236.597 220.096 236.808 Q 219.674 237.019 219.489 237.203 Q 219.305 237.388 218.777 237.546 Q 218.25 237.862 218.197 237.889 Q 218.145 237.915 218.039 237.915 Q 217.881 238.021 217.749 238.1 Q 217.617 238.179 217.459 238.284 Q 217.143 238.284 216.826 238.337 Q 216.51 238.39 216.193 238.39 Q 215.824 238.179 215.692 237.968 Q 215.561 237.757 215.561 237.388 Q 215.35 237.124 215.165 236.808 Q 214.98 236.491 214.77 236.228 Q 214.4 236.439 214.321 236.201 Q 214.242 235.964 214.189 235.674 Q 214.137 235.384 214.084 235.094 Q 214.031 234.804 213.979 234.698 Q 213.715 233.696 213.715 233.222 Q 213.715 232.958 213.82 232.879 Q 213.926 232.8 213.926 232.642 Q 213.979 232.114 214.031 231.429 Q 214.084 230.743 214.084 230.005 Q 214.084 229.267 214.084 228.528 Q 214.084 227.79 214.084 227.21 Q 214.084 224.837 214.031 222.596 Q 213.979 220.355 213.979 218.087 Q 213.979 217.032 214.031 215.978 Q 214.084 214.923 214.084 213.868 Q 214.084 211.284 214.163 208.753 Q 214.242 206.222 214.242 203.638 Q 214.242 202.583 214.137 201.502 Q 214.031 200.421 213.979 199.314 Q 213.926 198.733 214.031 198.391 Q 214.137 198.048 214.084 197.679 Q 214.242 197.626 214.664 197.626 Q 215.086 197.626 215.534 197.6 Q 215.982 197.573 216.378 197.547 Q 216.773 197.521 216.879 197.468 Q 217.248 197.732 217.617 197.732 Q 217.986 197.732 218.303 197.415 Q 218.566 197.521 218.593 197.573 Q 218.619 197.626 218.883 197.626 Q 219.357 197.573 219.621 197.547 Q 219.885 197.521 220.096 197.521 Q 220.676 197.942 220.808 198.549 Q 220.939 199.155 220.992 199.815 Q 221.045 200.474 221.071 201.133 Q 221.098 201.792 221.098 202.214 Q 221.098 202.53 221.15 202.873 Q 221.203 203.216 221.203 203.585 Q 221.203 203.849 221.177 204.112 Q 221.15 204.376 221.15 204.64 Q 221.15 206.169 221.177 207.751 Q 221.203 209.333 221.203 210.862 Q 221.203 213.605 221.124 216.373 Q 221.045 219.142 221.045 221.884 Q 221.045 222.464 221.098 223.044 Q 221.15 223.624 221.15 224.204 Q 221.15 224.521 221.124 224.837 Q 221.098 225.153 221.098 225.47 Q 221.098 227.421 221.256 229.372 Q 221.467 229.319 222.152 229.082 Q 222.838 228.845 223.576 228.555 Q 224.314 228.265 224.947 227.975 Q 225.58 227.685 225.738 227.526 Q 225.949 227.526 226.318 227.368 Q 226.688 227.21 227.109 226.973 Q 227.531 226.735 227.927 226.524 Q 228.322 226.314 228.48 226.155 Q 228.428 225.101 228.428 224.02 Q 228.428 222.939 228.428 221.884 Q 228.428 218.983 228.507 216.083 Q 228.586 213.183 228.586 210.177 Q 228.586 208.331 228.533 206.485 Q 228.48 204.64 228.48 202.794 Q 228.48 202.214 228.507 201.607 Q 228.533 201.001 228.533 200.421 Q 228.533 199.524 228.507 198.654 Q 228.48 197.784 228.586 196.888 Q 229.113 196.624 229.166 196.624 Q 229.482 196.624 229.614 196.624 Q 229.746 196.624 229.852 196.73 Q 230.01 196.782 230.142 196.756 Q 230.273 196.73 230.432 196.73 Q 230.695 196.73 230.959 196.835 Q 231.223 196.941 231.486 196.941 Q 231.908 196.888 231.935 197.046 Q 231.961 197.204 232.119 197.204 Q 232.541 197.046 232.699 197.204 Q 232.857 197.31 233.279 197.494 Q 233.701 197.679 234.176 197.89 Q 234.65 198.101 235.02 198.285 Q 235.389 198.47 235.389 198.628 Q 235.547 199.472 235.494 200.421 Q 235.441 201.37 235.441 202.214 Q 235.441 202.952 235.494 203.691 Q 235.547 204.429 235.547 205.167 Q 235.547 205.589 235.547 206.011 Q 235.547 206.433 235.6 206.802 Q 235.652 207.066 235.652 207.25 Q 235.652 207.435 235.652 207.646 Q 235.652 207.909 235.758 208.331 Q 235.705 208.595 235.705 208.885 Q 235.705 209.175 235.705 209.439 Q 235.705 210.177 235.758 210.968 Q 235.811 211.759 235.811 212.55 Q 235.811 213.077 235.731 213.552 Q 235.652 214.026 235.652 214.501 L 235.705 215.503 Q 235.705 216.03 235.758 216.558 Q 235.811 217.085 235.811 217.665 Q 235.811 217.929 235.784 218.192 Q 235.758 218.456 235.705 218.72 Q 235.652 218.983 235.652 219.3 Q 235.652 219.616 235.652 219.88 Q 235.652 220.618 235.705 221.357 Q 235.758 222.095 235.758 222.833 Q 235.758 223.308 235.731 223.756 Q 235.705 224.204 235.705 224.679 Q 235.705 225.628 235.784 226.63 Q 235.863 227.632 235.863 228.581 Q 235.863 229.003 235.758 229.478 Q 235.652 229.952 235.336 230.216 Z" style="fill: rgb(34, 34, 34); white-space: pre;"/>
  <path d="M 253.563 197.31 Q 253.932 197.995 253.932 198.892 Q 253.932 199.683 253.615 200.579 Q 253.299 201.476 252.613 201.95 Q 252.139 203.005 251.691 203.664 Q 251.242 204.323 250.82 204.956 Q 250.662 205.325 250.504 205.668 Q 250.346 206.011 250.082 206.38 Q 249.924 206.644 249.397 207.435 Q 248.869 208.226 248.316 209.096 Q 247.762 209.966 247.34 210.757 Q 246.918 211.548 246.918 211.759 Q 246.918 211.97 247.419 212.286 Q 247.92 212.603 248.078 212.761 Q 248.342 213.024 248.579 213.288 Q 248.817 213.552 249.08 213.816 Q 249.66 214.29 250.214 214.765 Q 250.768 215.239 251.348 215.819 Q 252.455 216.821 253.668 217.718 Q 254.881 218.614 255.83 219.827 Q 256.727 220.091 256.99 221.093 Q 257.254 222.095 257.149 222.991 Q 257.254 223.149 257.333 223.308 Q 257.412 223.466 257.518 223.677 Q 257.518 224.521 257.28 224.916 Q 257.043 225.312 256.779 225.892 Q 256.516 226.419 256.437 226.946 Q 256.358 227.474 256.094 227.896 Q 255.988 228.054 255.804 228.159 Q 255.619 228.265 255.514 228.476 Q 255.303 228.845 255.171 229.346 Q 255.039 229.847 254.828 230.269 Q 254.67 230.691 254.433 231.112 Q 254.195 231.534 254.037 231.956 Q 253.932 232.22 253.853 232.589 Q 253.774 232.958 253.352 233.116 Q 253.088 234.066 252.64 234.962 Q 252.192 235.858 251.928 236.808 Q 251.453 236.966 250.741 237.414 Q 250.029 237.862 249.608 237.862 Q 249.449 237.862 249.344 237.704 Q 249.238 237.546 249.028 237.441 Q 248.922 237.388 248.737 237.441 Q 248.553 237.493 248.447 237.493 Q 248.184 237.493 248.052 237.282 Q 247.92 237.071 247.709 236.966 Q 247.551 237.019 247.393 237.071 Q 247.235 237.124 247.076 237.124 Q 246.707 237.124 246.654 236.94 Q 246.602 236.755 246.338 236.597 Q 245.705 236.28 245.6 236.017 Q 245.494 235.753 245.283 235.648 Q 245.653 234.276 246.285 233.037 Q 246.918 231.798 247.498 230.532 Q 247.656 230.11 247.894 229.741 Q 248.131 229.372 248.342 228.95 Q 248.5 228.581 248.817 228.001 Q 249.133 227.421 249.397 226.788 Q 249.66 226.155 249.871 225.602 Q 250.082 225.048 250.082 224.679 Q 250.082 223.941 249.66 223.571 Q 248.131 222.306 246.786 220.987 Q 245.442 219.669 243.965 218.298 Q 243.016 217.454 241.908 216.558 Q 241.697 216.399 241.592 216.083 Q 241.487 215.767 241.276 215.503 Q 241.17 215.292 240.959 215.187 Q 240.748 215.081 240.643 214.87 Q 240.485 214.659 240.432 214.369 Q 240.379 214.079 240.115 213.921 Q 239.852 213.657 239.483 213.605 Q 239.113 213.552 238.85 213.288 Q 239.008 213.13 238.982 212.945 Q 238.955 212.761 238.955 212.603 Q 238.955 212.233 239.272 212.075 Q 239.588 211.917 239.588 211.495 Q 239.799 211.073 239.904 210.968 Q 240.485 209.544 241.223 208.226 Q 241.961 206.907 242.752 205.589 Q 243.016 205.167 243.253 204.772 Q 243.49 204.376 243.754 203.954 Q 243.912 203.585 244.044 203.295 Q 244.176 203.005 244.44 202.741 Q 245.178 201.898 245.679 201.159 Q 246.18 200.421 246.444 199.366 Q 246.496 199.103 246.654 198.628 Q 246.813 198.153 247.05 197.679 Q 247.287 197.204 247.551 196.835 Q 247.815 196.466 248.131 196.466 Q 248.395 196.466 248.896 196.677 Q 249.397 196.888 249.766 196.993 Q 250.082 197.099 250.425 197.178 Q 250.768 197.257 251.084 197.257 Q 251.295 197.257 251.506 197.125 Q 251.717 196.993 251.981 196.993 Q 252.403 196.993 252.772 197.125 Q 253.141 197.257 253.563 197.31 Z" style="fill: rgb(34, 34, 34); white-space: pre;"/>
  <path d="M 284.407 198.206 Q 284.618 198.153 284.776 198.048 Q 284.934 197.942 285.145 197.942 Q 285.303 197.995 285.382 198.153 Q 285.461 198.312 285.619 198.417 Q 285.778 198.312 285.91 198.206 Q 286.041 198.101 286.2 198.048 Q 286.727 198.206 286.78 198.575 Q 287.043 198.681 287.254 198.813 Q 287.465 198.944 287.729 198.997 Q 287.834 199.208 287.993 199.314 Q 288.151 199.419 288.362 199.63 Q 288.889 199.735 289.759 200.21 Q 290.629 200.685 291.157 200.948 Q 291.684 201.212 292.211 201.476 Q 292.739 201.739 293.213 202.056 Q 293.688 202.319 294.162 202.662 Q 294.637 203.005 295.164 203.216 Q 295.639 203.796 296.377 203.954 Q 297.116 204.112 297.696 204.534 Q 298.17 204.798 298.592 205.088 Q 299.014 205.378 299.436 205.642 Q 299.594 205.905 299.831 206.064 Q 300.069 206.222 300.28 206.485 Q 301.334 207.066 301.493 207.382 Q 301.651 207.487 301.967 207.698 Q 302.284 207.909 302.6 208.147 Q 302.916 208.384 303.18 208.621 Q 303.444 208.858 303.496 209.069 Q 303.285 209.544 303.285 209.834 Q 303.285 210.124 303.075 210.335 Q 303.391 210.757 303.391 211.126 Q 303.127 211.759 302.494 212.181 Q 302.336 212.603 301.993 212.84 Q 301.651 213.077 301.545 213.499 Q 301.123 213.763 301.044 213.921 Q 300.965 214.079 300.86 214.237 Q 299.858 215.292 298.988 216.057 Q 298.118 216.821 297.379 217.718 Q 296.852 217.982 296.483 218.377 Q 296.114 218.773 295.797 219.247 Q 295.375 219.669 294.98 220.065 Q 294.584 220.46 294.162 220.829 Q 294.057 221.04 293.82 221.172 Q 293.582 221.304 293.477 221.567 Q 292.897 221.831 292.528 222.306 Q 292.159 222.78 291.631 223.097 L 291.262 223.624 Q 291.104 223.73 290.814 223.967 Q 290.524 224.204 290.234 224.494 Q 289.944 224.784 289.733 225.048 Q 289.522 225.312 289.469 225.47 Q 289.311 225.523 288.968 225.786 Q 288.625 226.05 288.283 226.366 Q 287.94 226.683 287.65 226.999 Q 287.36 227.316 287.307 227.421 L 286.78 227.79 Q 286.832 229.214 286.859 230.664 Q 286.885 232.114 286.885 233.538 L 286.885 235.331 L 286.516 235.806 Q 286.252 235.806 286.094 235.7 Q 285.936 235.595 285.725 235.595 Q 285.514 235.595 285.329 235.806 Q 285.145 236.017 284.987 236.122 Q 284.618 236.175 284.38 236.307 Q 284.143 236.439 283.879 236.544 Q 283.563 236.386 283.246 236.386 Q 282.561 236.544 282.587 236.439 Q 282.614 236.333 282.35 236.333 Q 281.928 236.755 281.823 236.755 Q 281.612 236.755 281.427 236.808 Q 281.243 236.86 281.032 236.86 Q 280.821 236.439 280.689 235.99 Q 280.557 235.542 280.188 235.12 Q 280.346 234.593 280.135 234.382 Q 280.452 233.802 280.399 233.064 Q 280.346 232.325 280.346 231.692 Q 280.346 231.323 280.372 230.981 Q 280.399 230.638 280.399 230.321 Q 280.399 229.689 280.293 229.029 Q 280.188 228.37 280.188 227.685 Q 280.188 226.103 280.293 224.494 Q 280.399 222.886 280.399 221.304 Q 280.399 220.407 280.32 219.458 Q 280.241 218.509 280.241 217.612 Q 280.241 217.032 280.293 216.531 Q 280.346 216.03 280.399 215.556 Q 280.399 213.13 280.478 210.889 Q 280.557 208.648 280.557 206.433 Q 280.557 205.694 280.531 205.035 Q 280.504 204.376 280.504 203.638 Q 280.504 203.269 280.557 202.899 Q 280.61 202.53 280.61 202.161 Q 280.768 200.526 280.768 198.892 L 280.715 198.048 Q 280.926 197.732 281.348 197.732 Q 281.928 197.732 282.244 198.101 Q 282.614 198.048 282.956 197.969 Q 283.299 197.89 283.616 197.89 Q 284.09 197.89 284.407 198.206 Z M 287.518 206.591 Q 287.518 206.855 287.465 206.986 Q 287.412 207.118 287.36 207.224 Q 287.36 207.382 287.386 207.566 Q 287.412 207.751 287.412 207.962 Q 287.412 209.175 287.386 210.361 Q 287.36 211.548 287.36 212.708 L 287.254 215.503 Q 287.254 215.767 287.307 216.083 Q 287.36 216.399 287.36 216.663 Q 287.36 216.927 287.307 217.191 Q 287.254 217.454 287.254 217.718 Q 287.254 218.403 287.412 219.089 Q 287.676 218.983 287.782 218.746 Q 287.887 218.509 288.045 218.351 Q 289.258 217.243 290.313 216.03 Q 291.368 214.817 292.475 213.605 Q 293.424 212.603 294.11 211.97 Q 294.795 211.337 295.164 210.441 Q 294.268 209.86 293.319 209.254 Q 292.369 208.648 291.315 208.226 Q 291.262 208.12 291.025 207.962 Q 290.787 207.804 290.524 207.672 Q 290.26 207.54 289.996 207.435 Q 289.733 207.329 289.627 207.329 Q 289.153 206.907 288.625 206.802 Q 288.256 206.802 287.993 206.67 Q 287.729 206.538 287.623 206.433 Z" style="fill: rgb(34, 34, 34); white-space: pre;"/>
  <path d="M 329.535 211.126 Q 329.061 212.128 328.243 213.024 Q 327.426 213.921 326.688 214.712 Q 326.107 215.292 325.686 215.978 Q 325.264 216.663 324.736 217.243 Q 324.314 217.718 323.893 218.113 Q 323.471 218.509 323.102 218.983 Q 322.838 219.194 322.601 219.405 Q 322.363 219.616 322.152 219.933 Q 322.943 221.62 324.024 222.991 Q 325.105 224.362 326.266 225.733 Q 326.846 226.419 327.426 227.025 Q 328.006 227.632 328.428 228.317 Q 328.797 229.108 329.192 229.504 Q 329.588 229.899 329.904 230.321 Q 330.221 230.849 330.458 231.244 Q 330.695 231.64 331.117 232.009 Q 331.117 232.273 331.434 232.51 Q 331.75 232.747 331.855 233.011 Q 331.855 233.274 331.882 233.433 Q 331.908 233.591 331.908 233.696 Q 331.75 234.118 331.354 234.408 Q 330.959 234.698 330.643 235.015 Q 330.115 235.015 329.746 235.331 Q 329.377 235.648 328.744 235.648 Q 328.48 235.858 328.322 236.096 Q 328.164 236.333 327.9 236.544 Q 327.479 236.544 327.136 236.781 Q 326.793 237.019 326.371 237.124 Q 325.844 236.808 325.527 236.307 Q 325.211 235.806 324.684 235.542 Q 324.631 235.278 324.499 235.094 Q 324.367 234.909 324.262 234.698 Q 323.365 233.696 322.574 232.589 Q 321.783 231.482 320.992 230.374 Q 320.57 229.899 320.122 229.451 Q 319.674 229.003 319.252 228.476 Q 318.988 228.159 318.725 227.737 Q 318.461 227.316 318.145 226.946 Q 317.775 226.63 317.512 226.208 Q 317.248 225.786 316.879 225.523 Q 316.404 225.786 316.035 226.208 Q 315.666 226.63 315.191 226.946 Q 314.77 227.316 314.374 227.685 Q 313.979 228.054 313.557 228.37 Q 313.451 229.583 313.451 230.717 Q 313.451 231.851 313.451 232.958 Q 313.451 233.855 313.425 234.672 Q 313.398 235.489 313.188 236.333 Q 312.924 236.386 312.687 236.043 Q 312.449 235.7 312.186 235.648 Q 311.975 235.7 311.843 235.858 Q 311.711 236.017 311.447 235.911 Q 311.184 236.175 310.656 236.386 Q 310.393 236.386 310.076 236.465 Q 309.76 236.544 309.496 236.544 Q 309.074 236.544 308.916 236.439 Q 308.389 236.808 308.046 236.834 Q 307.703 236.86 307.492 236.86 Q 307.387 236.491 307.281 236.149 Q 307.176 235.806 307.123 235.384 Q 306.965 235.173 306.886 234.909 Q 306.807 234.646 306.701 234.382 Q 306.754 234.224 306.754 234.013 Q 306.754 233.802 306.754 233.591 Q 306.754 232.694 306.701 231.851 Q 306.648 231.007 306.754 230.11 Q 306.648 229.847 306.596 229.583 Q 306.543 229.319 306.543 229.056 Q 306.543 228.898 306.569 228.687 Q 306.596 228.476 306.701 228.37 Q 306.543 227.685 306.517 226.92 Q 306.49 226.155 306.49 225.47 Q 306.49 225.101 306.569 224.705 Q 306.648 224.31 306.648 223.888 Q 306.648 222.991 306.543 222.148 Q 306.438 221.304 306.438 220.46 Q 306.49 219.88 306.49 219.564 Q 306.49 219.247 306.543 218.931 Q 306.596 218.614 306.49 218.298 Q 306.543 218.034 306.622 217.902 Q 306.701 217.771 306.701 217.507 Q 306.701 216.821 306.728 216.162 Q 306.754 215.503 306.754 214.765 Q 306.754 214.237 306.78 213.736 Q 306.807 213.235 306.807 212.655 Q 306.807 212.181 306.886 211.759 Q 306.965 211.337 307.018 210.915 Q 307.07 210.441 307.07 209.992 Q 307.07 209.544 307.07 209.122 Q 307.07 208.015 307.07 206.881 Q 307.07 205.747 306.965 204.64 Q 306.912 204.376 306.859 204.06 Q 306.807 203.743 306.807 203.427 Q 306.701 202.425 306.648 201.37 Q 306.596 200.316 306.438 199.261 Q 306.543 199.103 306.543 198.918 Q 306.543 198.733 306.543 198.575 Q 306.543 198.312 306.543 198.074 Q 306.543 197.837 306.49 197.573 Q 306.596 197.468 306.701 197.336 Q 306.807 197.204 306.912 197.099 Q 307.229 197.099 307.571 197.125 Q 307.914 197.151 308.178 197.362 Q 308.441 197.257 308.784 197.125 Q 309.127 196.993 309.391 196.993 Q 309.813 196.993 310.023 197.204 Q 310.287 197.099 310.313 196.967 Q 310.34 196.835 310.709 196.835 Q 311.395 196.782 311.685 196.782 Q 311.975 196.782 312.238 196.73 Q 312.396 196.835 312.502 196.993 Q 312.607 197.151 312.713 197.31 Q 313.873 197.732 314.585 198.496 Q 315.297 199.261 316.193 199.788 Q 316.404 199.946 316.615 200.052 Q 316.826 200.157 317.037 200.263 Q 317.512 200.579 317.986 200.948 Q 318.461 201.317 318.988 201.581 Q 319.516 201.845 319.595 201.871 Q 319.674 201.898 319.727 202.003 Q 320.887 202.425 321.81 203.137 Q 322.732 203.849 323.787 204.429 Q 324.156 204.64 324.71 204.851 Q 325.264 205.062 325.817 205.299 Q 326.371 205.536 326.872 205.8 Q 327.373 206.064 327.637 206.38 Q 328.217 206.96 328.665 207.197 Q 329.113 207.435 329.535 207.751 L 329.588 209.175 Q 329.588 209.544 329.509 209.86 Q 329.43 210.177 329.43 210.546 Q 329.43 210.81 329.535 211.126 Z M 322.311 209.755 Q 321.73 209.439 321.15 209.149 Q 320.57 208.858 320.148 208.331 Q 319.779 208.226 318.83 207.83 Q 317.881 207.435 316.905 206.986 Q 315.93 206.538 315.112 206.195 Q 314.295 205.853 314.189 205.853 Q 314.031 205.905 314.031 206.538 Q 314.031 207.171 314.031 207.909 Q 314.031 208.648 314.031 209.333 Q 314.031 210.019 314.031 210.177 Q 314.031 211.179 313.979 212.128 Q 313.926 213.077 313.82 214.079 Q 313.715 214.237 313.662 214.369 Q 313.609 214.501 313.557 214.659 Q 313.451 215.398 313.451 216.61 Q 313.451 217.823 313.451 218.562 Q 313.451 218.931 313.451 219.247 Q 313.451 219.564 313.504 219.985 Q 313.768 219.985 313.873 219.854 Q 313.979 219.722 314.242 219.616 Q 314.928 218.878 315.613 218.192 Q 316.299 217.507 317.037 216.769 Q 317.354 216.452 317.67 216.083 Q 317.986 215.714 318.355 215.45 Q 318.619 215.134 318.83 214.844 Q 319.041 214.554 319.305 214.29 Q 320.043 213.499 320.834 212.734 Q 321.625 211.97 322.152 211.021 Q 322.521 210.757 322.838 210.177 Q 322.469 210.124 322.311 209.755 Z" style="fill: rgb(34, 34, 34); white-space: pre;"/>
  <path d="M 350.934 230.48 Q 350.828 230.796 350.828 231.06 Q 350.828 231.376 350.907 231.692 Q 350.986 232.009 350.986 232.325 Q 350.881 233.274 350.828 233.485 Q 350.512 233.749 349.536 234.092 Q 348.561 234.435 347.216 234.777 Q 345.871 235.12 344.316 235.463 Q 342.76 235.806 341.336 236.122 Q 339.912 236.439 338.726 236.676 Q 337.539 236.913 336.959 237.019 Q 336.695 237.071 336.458 237.15 Q 336.221 237.23 335.957 237.335 Q 335.694 237.388 335.43 237.361 Q 335.166 237.335 334.902 237.441 Q 334.744 237.441 334.612 237.282 Q 334.481 237.124 334.375 237.019 Q 334.375 236.702 334.27 236.544 Q 334.164 236.386 334.032 236.28 Q 333.901 236.175 333.795 236.043 Q 333.69 235.911 333.69 235.595 Q 333.584 235.173 333.4 234.936 Q 333.215 234.698 333.215 234.487 Q 333.004 233.802 333.004 233.274 Q 333.004 233.011 333.057 232.853 Q 333.11 232.694 333.215 232.536 Q 333.531 232.431 333.69 232.273 Q 333.848 232.114 334.111 232.009 Q 334.428 231.851 335.008 231.719 Q 335.588 231.587 336.274 231.429 Q 336.959 231.271 337.592 231.112 Q 338.225 230.954 338.647 230.796 Q 338.805 230.743 338.963 230.743 Q 339.121 230.743 339.227 230.638 Q 339.121 229.794 339.095 228.95 Q 339.069 228.107 338.963 227.316 Q 338.963 226.946 338.91 226.577 Q 338.858 226.208 338.858 225.892 L 338.91 224.784 Q 338.91 222.78 338.752 220.776 Q 338.594 218.773 338.594 216.769 L 338.594 214.976 Q 338.594 214.554 338.568 214.185 Q 338.541 213.816 338.541 213.394 Q 338.541 212.392 338.568 211.469 Q 338.594 210.546 338.594 209.544 L 338.594 204.692 Q 337.434 204.429 336.432 204.719 Q 335.43 205.009 334.375 205.114 Q 334.006 204.745 333.953 204.323 Q 333.531 203.743 333.373 203.585 Q 333.215 203.427 333.004 202.689 Q 332.635 201.95 332.398 201.766 Q 332.16 201.581 332.16 201.159 Q 332.16 200.896 332.292 200.79 Q 332.424 200.685 332.529 200.421 Q 333.004 200.21 333.083 200.131 Q 333.162 200.052 333.268 199.999 Q 333.795 199.63 334.481 199.472 Q 335.166 199.314 335.799 199.103 Q 336.326 198.944 336.801 198.733 Q 337.276 198.523 337.856 198.364 Q 338.541 198.153 339.227 197.942 Q 339.912 197.732 340.545 197.573 Q 340.967 197.468 341.362 197.494 Q 341.758 197.521 342.18 197.257 Q 342.865 197.362 343.63 197.231 Q 344.395 197.099 345.291 196.888 Q 346.188 196.677 347.031 196.519 Q 347.875 196.36 348.297 196.255 Q 348.561 196.36 348.666 196.519 Q 348.772 196.677 348.983 196.73 Q 349.035 196.888 349.088 197.125 Q 349.141 197.362 349.299 197.468 Q 349.299 198.048 349.563 198.312 Q 349.51 198.839 349.747 199.498 Q 349.985 200.157 349.985 200.737 Q 349.721 201.528 349.114 201.739 Q 348.508 201.95 347.796 202.108 Q 347.084 202.267 346.399 202.399 Q 345.713 202.53 345.291 202.689 Q 345.291 203.427 345.318 204.218 Q 345.344 205.009 345.344 205.8 Q 345.344 206.538 345.318 207.276 Q 345.291 208.015 345.291 208.753 Q 345.291 209.86 345.265 211.021 Q 345.238 212.181 345.238 213.341 Q 345.238 214.976 345.291 216.61 Q 345.344 218.245 345.449 219.88 Q 345.502 220.144 345.502 220.671 Q 345.502 222.78 345.581 224.811 Q 345.66 226.841 345.871 229.003 Q 346.557 229.056 346.926 228.792 Q 347.19 228.792 347.427 228.687 Q 347.664 228.581 347.875 228.476 Q 348.192 228.423 348.745 228.291 Q 349.299 228.159 349.457 228.159 Q 349.932 228.212 350.037 228.159 Q 350.195 228.476 350.512 228.634 Q 350.617 229.108 350.696 229.557 Q 350.776 230.005 350.934 230.48 Z" style="fill: rgb(34, 34, 34); white-space: pre;"/>
  <path d="M 378.507 196.941 Q 379.087 196.941 379.35 197.099 Q 379.614 197.626 379.693 198.022 Q 379.772 198.417 379.772 198.944 Q 379.825 199.735 379.799 200.078 Q 379.772 200.421 379.719 200.79 Q 379.667 201.634 379.667 202.399 Q 379.667 203.163 379.667 204.007 Q 379.667 205.853 379.719 207.751 Q 379.772 209.649 379.772 211.495 Q 379.772 212.233 379.746 212.945 Q 379.719 213.657 379.719 214.396 Q 379.719 214.554 379.746 214.738 Q 379.772 214.923 379.772 215.081 Q 379.772 215.556 379.746 216.004 Q 379.719 216.452 379.719 216.874 Q 379.719 217.085 379.719 217.243 Q 379.719 217.401 379.772 217.665 Q 379.667 218.087 379.667 218.245 Q 379.667 219.089 379.719 219.959 Q 379.772 220.829 379.772 221.673 Q 379.772 222.464 379.799 223.202 Q 379.825 223.941 379.825 224.732 Q 379.825 225.153 379.799 225.628 Q 379.772 226.103 379.772 226.577 Q 379.772 227.685 379.825 228.818 Q 379.878 229.952 379.93 231.06 Q 379.93 231.798 379.93 232.51 Q 379.93 233.222 380.036 233.96 Q 380.036 234.804 379.957 235.199 Q 379.878 235.595 379.772 235.964 Q 379.35 236.069 379.218 236.043 Q 379.087 236.017 378.928 236.017 Q 378.19 236.228 377.979 236.412 Q 377.768 236.597 377.505 236.808 Q 377.294 236.808 377.004 236.834 Q 376.714 236.86 376.555 237.019 Q 376.292 236.913 376.134 236.966 Q 375.975 237.019 375.817 237.019 Q 375.079 237.071 374.815 237.203 Q 374.551 237.335 374.077 237.335 Q 373.655 236.649 373.444 236.254 Q 373.233 235.858 372.759 235.911 Q 372.073 234.857 371.783 233.696 Q 371.493 232.536 370.807 231.587 Q 370.755 231.165 370.649 231.06 Q 370.544 230.954 370.438 230.638 Q 370.227 230.216 370.069 229.741 Q 369.911 229.267 369.647 228.845 Q 369.225 227.948 368.803 227.078 Q 368.382 226.208 368.012 225.259 Q 367.854 224.837 367.749 224.389 Q 367.643 223.941 367.485 223.519 Q 367.38 223.308 367.248 223.097 Q 367.116 222.886 367.01 222.728 Q 366.694 222.148 366.404 221.567 Q 366.114 220.987 365.745 220.407 Q 365.639 220.144 365.455 219.906 Q 365.27 219.669 365.059 219.405 Q 364.901 219.036 364.769 218.667 Q 364.637 218.298 364.479 217.929 Q 364.374 217.612 364.163 217.27 Q 363.952 216.927 363.846 216.61 Q 363.741 216.347 363.688 216.083 Q 363.635 215.819 363.372 215.608 Q 363.003 216.241 363.003 216.452 Q 362.95 217.085 362.924 217.481 Q 362.897 217.876 362.897 218.192 Q 362.897 218.562 362.976 218.904 Q 363.055 219.247 363.055 219.564 Q 363.161 220.829 363.214 222.121 Q 363.266 223.413 363.266 224.679 Q 363.214 225.681 363.24 226.208 Q 363.266 226.735 363.319 227.263 Q 363.372 227.79 363.345 228.344 Q 363.319 228.898 363.372 229.425 Q 363.372 230.638 363.398 231.772 Q 363.425 232.905 363.425 234.118 L 363.425 235.384 Q 363.425 235.964 363.266 236.439 Q 362.475 236.439 362.238 236.386 Q 362.001 236.333 361.737 236.228 Q 361.421 236.28 361.236 236.465 Q 361.051 236.649 360.788 236.808 Q 360.208 236.755 360.155 236.834 Q 360.102 236.913 359.944 237.019 Q 359.786 237.071 359.654 237.019 Q 359.522 236.966 359.364 236.966 Q 358.942 236.86 358.678 236.86 Q 358.362 236.966 358.072 237.071 Q 357.782 237.177 357.466 237.23 Q 357.149 236.649 357.096 235.858 Q 357.044 235.067 356.675 234.487 Q 356.78 234.276 356.806 234.224 Q 356.833 234.171 356.833 233.907 Q 356.833 232.694 356.78 231.482 Q 356.727 230.269 356.727 229.056 Q 356.727 228.054 356.595 227.105 Q 356.464 226.155 356.464 225.153 Q 356.464 224.837 356.516 224.521 Q 356.569 224.204 356.569 223.835 Q 356.569 223.677 356.543 223.519 Q 356.516 223.36 356.516 223.255 Q 356.411 222.306 356.384 221.304 Q 356.358 220.302 356.358 219.3 Q 356.305 218.72 356.279 218.087 Q 356.253 217.454 356.253 216.769 Q 356.253 216.505 356.305 216.189 Q 356.358 215.872 356.358 215.556 L 356.358 213.341 Q 356.253 212.708 356.279 212.497 Q 356.305 212.286 356.305 212.075 Q 356.305 211.601 356.226 211.152 Q 356.147 210.704 356.147 210.177 Q 356.147 209.808 356.226 209.465 Q 356.305 209.122 356.305 208.753 Q 356.305 207.962 356.226 207.224 Q 356.147 206.485 356.147 205.694 L 356.147 201.212 Q 356.147 200.843 356.094 200.474 Q 356.042 200.105 356.042 199.683 Q 356.358 198.944 356.622 198.918 Q 356.885 198.892 357.096 198.733 Q 357.676 198.839 358.098 198.628 Q 358.784 198.681 358.942 198.47 Q 359.048 198.575 359.232 198.549 Q 359.417 198.523 359.575 198.575 Q 359.733 198.47 359.839 198.364 Q 359.944 198.259 360.155 198.153 Q 360.735 197.837 360.841 197.758 Q 360.946 197.679 361.104 197.573 Q 361.368 197.573 361.447 197.732 Q 361.526 197.89 361.79 197.89 Q 361.895 198.101 362.053 198.312 Q 362.212 198.523 362.423 198.628 Q 362.844 199.524 363.425 200.157 Q 363.899 201.528 364.506 202.794 Q 365.112 204.06 365.798 205.325 Q 365.798 205.483 365.85 205.721 Q 365.903 205.958 365.956 206.064 Q 366.219 206.644 366.72 207.566 Q 367.221 208.489 367.591 209.069 Q 367.696 209.28 367.854 209.439 Q 368.012 209.597 368.118 209.808 Q 368.276 210.071 368.382 210.388 Q 368.487 210.704 368.645 210.968 Q 368.909 211.601 369.252 212.207 Q 369.594 212.814 369.964 213.446 Q 370.069 213.763 370.201 214.079 Q 370.333 214.396 370.491 214.712 Q 370.913 215.661 371.256 216.162 Q 371.598 216.663 371.757 217.243 Q 372.126 217.665 372.337 218.166 Q 372.548 218.667 372.969 218.983 Q 373.022 218.72 373.075 217.428 Q 373.128 216.136 373.128 214.607 Q 373.128 213.077 373.128 211.706 Q 373.128 210.335 373.128 209.86 Q 373.128 208.437 373.075 207.039 Q 373.022 205.642 373.022 204.271 Q 373.022 203.163 373.049 202.029 Q 373.075 200.896 373.128 199.788 Q 373.18 199.208 373.154 198.707 Q 373.128 198.206 373.18 197.679 Q 373.233 197.415 373.391 197.151 Q 373.55 196.888 373.655 196.624 Q 374.341 196.519 374.71 196.888 Q 375.026 196.73 375.474 196.73 Q 375.923 196.73 376.239 196.677 Q 376.661 196.624 376.714 196.598 Q 376.766 196.571 376.872 196.571 Q 377.083 196.677 377.267 196.73 Q 377.452 196.782 377.716 196.888 Q 378.19 196.73 378.507 196.941 Z" style="fill: rgb(34, 34, 34); white-space: pre;"/>
  <path d="M 408.189 198.839 Q 408.083 199.05 408.11 199.261 Q 408.136 199.472 408.136 199.735 Q 408.031 200.368 408.136 200.368 Q 408.242 200.368 408.242 200.474 L 407.872 201.001 Q 407.872 201.317 407.741 201.581 Q 407.609 201.845 407.661 202.214 Q 407.503 202.478 407.371 202.741 Q 407.24 203.005 406.976 203.269 L 406.29 203.269 Q 405.71 203.269 405.051 203.348 Q 404.392 203.427 403.759 203.427 Q 403.654 203.427 403.495 203.4 Q 403.337 203.374 403.179 203.374 Q 403.074 203.374 402.915 203.4 Q 402.757 203.427 402.546 203.427 Q 401.755 203.427 400.991 203.348 Q 400.226 203.269 399.382 203.269 Q 399.171 203.269 398.96 203.269 Q 398.749 203.269 398.486 203.321 Q 398.433 204.218 398.407 205.141 Q 398.38 206.064 398.38 207.013 Q 398.38 207.276 398.327 207.566 Q 398.275 207.857 398.275 208.12 Q 398.222 208.806 398.196 209.439 Q 398.169 210.071 398.169 210.757 Q 398.169 212.233 398.196 213.71 Q 398.222 215.187 398.275 216.716 Q 398.327 217.507 398.38 218.245 Q 398.433 218.983 398.433 219.774 Q 398.433 221.567 398.38 223.334 Q 398.327 225.101 398.327 226.894 Q 398.327 227.474 398.275 227.975 Q 398.222 228.476 398.222 229.056 Q 398.222 230.269 398.275 231.482 Q 398.327 232.694 398.327 233.907 Q 398.327 234.487 398.301 235.067 Q 398.275 235.648 398.275 236.228 Q 398.011 236.649 397.906 236.966 Q 397.8 237.282 397.273 237.282 Q 396.904 237.177 396.93 237.045 Q 396.956 236.913 396.851 236.808 Q 396.376 236.755 396.139 236.887 Q 395.902 237.019 395.585 237.124 Q 395.427 237.071 395.242 237.071 Q 395.058 237.071 394.9 237.071 Q 394.794 237.071 394.689 237.15 Q 394.583 237.23 394.214 237.23 Q 393.898 237.282 393.845 237.124 Q 393.792 236.966 393.529 236.966 Q 393.265 237.124 392.922 237.203 Q 392.579 237.282 392.263 237.282 Q 391.947 237.071 391.973 236.887 Q 391.999 236.702 391.894 236.491 Q 391.841 236.386 391.709 236.201 Q 391.577 236.017 391.472 235.911 Q 391.577 235.173 391.63 234.593 Q 391.683 234.013 391.683 233.327 Q 391.683 231.956 391.577 230.638 Q 391.472 229.319 391.472 227.948 Q 391.472 227.526 391.577 227.052 Q 391.683 226.577 391.683 226.05 Q 391.577 225.628 391.63 225.549 Q 391.683 225.47 391.683 225.364 Q 391.683 225.048 391.657 224.732 Q 391.63 224.415 391.63 224.099 Q 391.63 223.466 391.657 222.833 Q 391.683 222.2 391.683 221.567 Q 391.683 221.304 391.657 221.014 Q 391.63 220.724 391.63 220.46 Q 391.577 219.985 391.604 219.458 Q 391.63 218.931 391.63 218.403 Q 391.63 215.872 391.551 213.394 Q 391.472 210.915 391.472 208.384 Q 391.472 207.171 391.604 205.905 Q 391.736 204.64 391.736 203.374 Q 391.736 203.216 391.63 202.952 Q 391.525 202.689 391.419 202.583 Q 391.156 202.583 390.918 202.557 Q 390.681 202.53 390.417 202.53 Q 389.837 202.53 389.31 202.689 Q 388.308 202.741 387.385 202.82 Q 386.462 202.899 385.513 202.952 Q 384.88 202.899 384.748 202.926 Q 384.617 202.952 384.458 202.952 Q 384.036 202.952 383.826 202.741 L 383.826 202.056 Q 383.509 201.423 383.562 201.37 Q 383.615 201.317 383.615 201.212 Q 383.615 201.054 383.325 200.869 Q 383.034 200.685 383.034 200.263 Q 382.982 199.841 382.824 199.63 Q 382.665 199.419 382.665 199.208 Q 382.665 198.839 382.824 198.364 Q 383.298 198.101 383.746 197.995 Q 384.195 197.89 384.775 197.732 Q 385.091 197.626 385.355 197.521 Q 385.618 197.415 385.935 197.362 Q 386.304 197.31 386.673 197.31 Q 387.042 197.31 387.411 197.257 Q 388.202 197.099 389.073 196.993 Q 389.943 196.888 390.734 196.888 Q 391.472 196.888 392.21 197.072 Q 392.949 197.257 393.529 197.257 Q 394.372 197.257 395.137 197.362 Q 395.902 197.468 396.745 197.468 Q 396.851 197.468 397.088 197.547 Q 397.326 197.626 397.642 197.626 L 402.757 197.626 Q 403.179 197.732 403.364 197.679 Q 403.548 197.626 403.706 197.626 Q 404.128 197.626 404.497 197.679 Q 404.867 197.732 405.288 197.732 Q 405.658 197.732 405.868 197.679 Q 406.29 197.732 406.659 197.916 Q 407.029 198.101 407.503 198.101 Q 407.714 198.259 407.82 198.496 Q 407.925 198.733 408.189 198.839 Z" style="fill: rgb(34, 34, 34); white-space: pre;"/>
</svg>